# xmcd
# 
# Track frame offsets:
#     150
#     11648
#     27255
#     50160
#     73407
# 
# Disc length: 1323
# 
# Revision: 0
# Processed by: cddbd v1.5.2PL0 Copyright (c) Steve Scherf et al.
# Submitted via: fre:ac v1.0.17
# 
DISCID=45052905
DTITLE=HOWL BE QUIET - BIRDCAGE.EP
DYEAR=2014
DGENRE=JPop
TTITLE0=From Birdcage
TTITLE1=千年孤独の賜物
TTITLE2=ライブオアライブ
TTITLE3=A.I.
TTITLE4=救難戦争
EXTD=
EXTT0=
EXTT1=
EXTT2=
EXTT3=
EXTT4=
PLAYORDER=
